<mxfile host="app.diagrams.net" agent="Mozilla/5.0 (Macintosh; Intel Mac OS X 10_15_7) AppleWebKit/537.36 (KHTML, like Gecko) Chrome/133.0.0.0 Safari/537.36" version="26.0.16">
  <diagram name="PÃ¡gina-1" id="Y00YQGnwwvDpwTyq9NtS">
    <mxGraphModel dx="1394" dy="744" grid="1" gridSize="10" guides="1" tooltips="1" connect="1" arrows="1" fold="1" page="1" pageScale="1" pageWidth="827" pageHeight="1169" math="0" shadow="0">
      <root>
        <mxCell id="0" />
        <mxCell id="1" parent="0" />
        <mxCell id="U4qcxggnjqAigQgF38yk-5" style="edgeStyle=orthogonalEdgeStyle;rounded=0;orthogonalLoop=1;jettySize=auto;html=1;exitX=1;exitY=0.5;exitDx=0;exitDy=0;" edge="1" parent="1" source="U4qcxggnjqAigQgF38yk-1" target="U4qcxggnjqAigQgF38yk-2">
          <mxGeometry relative="1" as="geometry" />
        </mxCell>
        <mxCell id="U4qcxggnjqAigQgF38yk-1" value="User wallet" style="rounded=1;whiteSpace=wrap;html=1;" vertex="1" parent="1">
          <mxGeometry x="40" y="40" width="120" height="60" as="geometry" />
        </mxCell>
        <mxCell id="U4qcxggnjqAigQgF38yk-2" value="Ethereum blockchain (on-chain)" style="rounded=1;whiteSpace=wrap;html=1;" vertex="1" parent="1">
          <mxGeometry x="370" y="40" width="120" height="60" as="geometry" />
        </mxCell>
        <mxCell id="U4qcxggnjqAigQgF38yk-6" value="Register identity" style="text;html=1;align=center;verticalAlign=middle;whiteSpace=wrap;rounded=0;" vertex="1" parent="1">
          <mxGeometry x="220" y="40" width="100" height="30" as="geometry" />
        </mxCell>
        <mxCell id="U4qcxggnjqAigQgF38yk-7" style="edgeStyle=orthogonalEdgeStyle;rounded=0;orthogonalLoop=1;jettySize=auto;html=1;exitX=1;exitY=0.5;exitDx=0;exitDy=0;" edge="1" parent="1" source="U4qcxggnjqAigQgF38yk-8" target="U4qcxggnjqAigQgF38yk-9">
          <mxGeometry relative="1" as="geometry" />
        </mxCell>
        <mxCell id="U4qcxggnjqAigQgF38yk-8" value="University systems" style="rounded=1;whiteSpace=wrap;html=1;" vertex="1" parent="1">
          <mxGeometry x="40" y="160" width="120" height="60" as="geometry" />
        </mxCell>
        <mxCell id="U4qcxggnjqAigQgF38yk-9" value="IPFS (off-chain storage)" style="rounded=1;whiteSpace=wrap;html=1;" vertex="1" parent="1">
          <mxGeometry x="370" y="160" width="120" height="60" as="geometry" />
        </mxCell>
        <mxCell id="U4qcxggnjqAigQgF38yk-10" value="Upload" style="text;html=1;align=center;verticalAlign=middle;whiteSpace=wrap;rounded=0;" vertex="1" parent="1">
          <mxGeometry x="220" y="160" width="100" height="30" as="geometry" />
        </mxCell>
        <mxCell id="U4qcxggnjqAigQgF38yk-11" style="edgeStyle=orthogonalEdgeStyle;rounded=0;orthogonalLoop=1;jettySize=auto;html=1;exitX=1;exitY=0.5;exitDx=0;exitDy=0;" edge="1" parent="1" source="U4qcxggnjqAigQgF38yk-12" target="U4qcxggnjqAigQgF38yk-13">
          <mxGeometry relative="1" as="geometry" />
        </mxCell>
        <mxCell id="U4qcxggnjqAigQgF38yk-12" value="University systems" style="rounded=1;whiteSpace=wrap;html=1;" vertex="1" parent="1">
          <mxGeometry x="40" y="280" width="120" height="60" as="geometry" />
        </mxCell>
        <mxCell id="U4qcxggnjqAigQgF38yk-13" value="Ethereum Blockchain" style="rounded=1;whiteSpace=wrap;html=1;" vertex="1" parent="1">
          <mxGeometry x="370" y="280" width="120" height="60" as="geometry" />
        </mxCell>
        <mxCell id="U4qcxggnjqAigQgF38yk-14" value="Store hash" style="text;html=1;align=center;verticalAlign=middle;whiteSpace=wrap;rounded=0;" vertex="1" parent="1">
          <mxGeometry x="220" y="280" width="100" height="30" as="geometry" />
        </mxCell>
        <mxCell id="U4qcxggnjqAigQgF38yk-15" style="edgeStyle=orthogonalEdgeStyle;rounded=0;orthogonalLoop=1;jettySize=auto;html=1;exitX=1;exitY=0.5;exitDx=0;exitDy=0;" edge="1" parent="1" source="U4qcxggnjqAigQgF38yk-16" target="U4qcxggnjqAigQgF38yk-17">
          <mxGeometry relative="1" as="geometry" />
        </mxCell>
        <mxCell id="U4qcxggnjqAigQgF38yk-16" value="Web app (DApp)" style="rounded=1;whiteSpace=wrap;html=1;" vertex="1" parent="1">
          <mxGeometry x="40" y="400" width="120" height="60" as="geometry" />
        </mxCell>
        <mxCell id="U4qcxggnjqAigQgF38yk-17" value="Ethereum Blockchain&amp;nbsp;" style="rounded=1;whiteSpace=wrap;html=1;" vertex="1" parent="1">
          <mxGeometry x="370" y="400" width="120" height="60" as="geometry" />
        </mxCell>
        <mxCell id="U4qcxggnjqAigQgF38yk-18" value="Query" style="text;html=1;align=center;verticalAlign=middle;whiteSpace=wrap;rounded=0;" vertex="1" parent="1">
          <mxGeometry x="220" y="400" width="100" height="30" as="geometry" />
        </mxCell>
        <mxCell id="U4qcxggnjqAigQgF38yk-19" style="edgeStyle=orthogonalEdgeStyle;rounded=0;orthogonalLoop=1;jettySize=auto;html=1;exitX=1;exitY=0.5;exitDx=0;exitDy=0;" edge="1" parent="1" source="U4qcxggnjqAigQgF38yk-20" target="U4qcxggnjqAigQgF38yk-21">
          <mxGeometry relative="1" as="geometry" />
        </mxCell>
        <mxCell id="U4qcxggnjqAigQgF38yk-20" value="Web app (DApp)" style="rounded=1;whiteSpace=wrap;html=1;" vertex="1" parent="1">
          <mxGeometry x="40" y="520" width="120" height="60" as="geometry" />
        </mxCell>
        <mxCell id="U4qcxggnjqAigQgF38yk-21" value="IPFS" style="rounded=1;whiteSpace=wrap;html=1;" vertex="1" parent="1">
          <mxGeometry x="370" y="520" width="120" height="60" as="geometry" />
        </mxCell>
        <mxCell id="U4qcxggnjqAigQgF38yk-22" value="Fetch" style="text;html=1;align=center;verticalAlign=middle;whiteSpace=wrap;rounded=0;" vertex="1" parent="1">
          <mxGeometry x="220" y="520" width="100" height="30" as="geometry" />
        </mxCell>
        <mxCell id="U4qcxggnjqAigQgF38yk-23" value="&lt;font style=&quot;font-size: 10px;&quot;&gt;Smart contract records user identity on-chain&lt;/font&gt;" style="text;html=1;align=center;verticalAlign=middle;whiteSpace=wrap;rounded=0;" vertex="1" parent="1">
          <mxGeometry x="190" y="70" width="170" height="30" as="geometry" />
        </mxCell>
        <mxCell id="U4qcxggnjqAigQgF38yk-24" value="&lt;font style=&quot;font-size: 10px;&quot;&gt;Credential file stored in IPFS&lt;/font&gt;&lt;div&gt;&lt;font style=&quot;font-size: 10px;&quot;&gt;&lt;br&gt;&lt;/font&gt;&lt;/div&gt;" style="text;html=1;align=center;verticalAlign=middle;whiteSpace=wrap;rounded=0;" vertex="1" parent="1">
          <mxGeometry x="185" y="190" width="170" height="30" as="geometry" />
        </mxCell>
        <mxCell id="U4qcxggnjqAigQgF38yk-25" value="&lt;font style=&quot;font-size: 10px;&quot;&gt;Retrieves stored credential hash using smart contract&lt;/font&gt;" style="text;html=1;align=center;verticalAlign=middle;whiteSpace=wrap;rounded=0;" vertex="1" parent="1">
          <mxGeometry x="185" y="430" width="170" height="30" as="geometry" />
        </mxCell>
        <mxCell id="U4qcxggnjqAigQgF38yk-26" value="&lt;font style=&quot;font-size: 10px;&quot;&gt;Smart contract saves (file hash) as credential record&lt;/font&gt;" style="text;html=1;align=center;verticalAlign=middle;whiteSpace=wrap;rounded=0;" vertex="1" parent="1">
          <mxGeometry x="185" y="310" width="170" height="30" as="geometry" />
        </mxCell>
        <mxCell id="U4qcxggnjqAigQgF38yk-27" value="&lt;font style=&quot;font-size: 10px;&quot;&gt;Downloads credential file using hash pointer. Verifies it matches on-chain hash&lt;/font&gt;" style="text;html=1;align=center;verticalAlign=middle;whiteSpace=wrap;rounded=0;" vertex="1" parent="1">
          <mxGeometry x="180" y="560" width="170" height="30" as="geometry" />
        </mxCell>
      </root>
    </mxGraphModel>
  </diagram>
</mxfile>
